<mxfile host="app.diagrams.net" modified="2024-03-02T13:07:23.381Z" agent="Mozilla/5.0 (Macintosh; Intel Mac OS X 10_15_7) AppleWebKit/537.36 (KHTML, like Gecko) Chrome/122.0.0.0 Safari/537.36" etag="vaWjnyX7VG6WdoW7v4E8" version="24.0.0" type="github">
  <diagram name="Page-1" id="pLtwYjjfAMEQppa5POo0">
    <mxGraphModel dx="954" dy="542" grid="1" gridSize="10" guides="1" tooltips="1" connect="1" arrows="1" fold="1" page="1" pageScale="1" pageWidth="827" pageHeight="1169" background="none" math="0" shadow="0">
      <root>
        <mxCell id="0" />
        <mxCell id="1" parent="0" />
        <mxCell id="oiqUHa8ECQVuwVvn2OhY-2" value="&lt;p style=&quot;margin:0px;margin-top:6px;text-align:center;&quot;&gt;&lt;b&gt;JRE&lt;/b&gt;&lt;/p&gt;" style="align=left;overflow=fill;html=1;dropTarget=0;whiteSpace=wrap;fillColor=#56517E;strokeColor=#EEEEEE;labelBackgroundColor=none;fontColor=#FFFFFF;rounded=0;" parent="1" vertex="1">
          <mxGeometry x="130" y="180" width="620" height="260" as="geometry" />
        </mxCell>
        <mxCell id="oiqUHa8ECQVuwVvn2OhY-3" value="" style="shape=component;jettyWidth=8;jettyHeight=4;labelBackgroundColor=none;fillColor=#56517E;strokeColor=#EEEEEE;fontColor=#FFFFFF;rounded=0;" parent="oiqUHa8ECQVuwVvn2OhY-2" vertex="1">
          <mxGeometry x="1" width="20" height="20" relative="1" as="geometry">
            <mxPoint x="-24" y="4" as="offset" />
          </mxGeometry>
        </mxCell>
        <mxCell id="oiqUHa8ECQVuwVvn2OhY-4" value="JVM" style="html=1;dropTarget=0;whiteSpace=wrap;fillColor=#56517E;strokeColor=#EEEEEE;labelBackgroundColor=none;fontColor=#FFFFFF;rounded=0;" parent="1" vertex="1">
          <mxGeometry x="170" y="280" width="180" height="90" as="geometry" />
        </mxCell>
        <mxCell id="oiqUHa8ECQVuwVvn2OhY-5" value="" style="shape=module;jettyWidth=8;jettyHeight=4;labelBackgroundColor=none;fillColor=#56517E;strokeColor=#EEEEEE;fontColor=#FFFFFF;rounded=0;" parent="oiqUHa8ECQVuwVvn2OhY-4" vertex="1">
          <mxGeometry x="1" width="20" height="20" relative="1" as="geometry">
            <mxPoint x="-27" y="7" as="offset" />
          </mxGeometry>
        </mxCell>
        <mxCell id="oiqUHa8ECQVuwVvn2OhY-10" value="JRE Librairies" style="html=1;dropTarget=0;whiteSpace=wrap;fillColor=#56517E;strokeColor=#EEEEEE;labelBackgroundColor=none;fontColor=#FFFFFF;rounded=0;" parent="1" vertex="1">
          <mxGeometry x="480" y="280" width="180" height="90" as="geometry" />
        </mxCell>
        <mxCell id="oiqUHa8ECQVuwVvn2OhY-11" value="" style="shape=module;jettyWidth=8;jettyHeight=4;labelBackgroundColor=none;fillColor=#56517E;strokeColor=#EEEEEE;fontColor=#FFFFFF;rounded=0;" parent="oiqUHa8ECQVuwVvn2OhY-10" vertex="1">
          <mxGeometry x="1" width="20" height="20" relative="1" as="geometry">
            <mxPoint x="-27" y="7" as="offset" />
          </mxGeometry>
        </mxCell>
      </root>
    </mxGraphModel>
  </diagram>
</mxfile>
